<svg width="234" height="100" viewBox="0 0 234 100" fill="none" xmlns="http://www.w3.org/2000/svg">
<path d="M75.1516 80.1564C74.5434 82.1045 73.7352 83.9667 72.7271 85.743C70.1852 90.1676 66.6635 93.6636 62.1621 96.2309C57.6608 98.7436 52.6298 100 47.0693 100C41.4558 100 36.3983 98.7436 31.8969 96.2309C28.7132 94.4151 26.0064 92.121 23.7763 89.3487L30.0439 84.7543C31.6717 86.8005 33.6399 88.4958 35.9483 89.8399C39.2846 91.7517 42.9916 92.7077 47.0693 92.7077C51.147 92.7077 54.8011 91.7518 58.0315 89.8399C61.3149 87.9281 63.8833 85.306 65.7368 81.9739C66.4464 80.7133 67.0239 79.3997 67.4694 78.0331L75.1516 80.1564Z" fill="url(#paint0_linear_4596_77528)"/>
<path d="M50.5802 62.0161C50.5802 63.4054 50.9169 64.4882 51.5903 65.2645C52.3034 66 53.2938 66.3678 54.5614 66.3678C55.0368 66.3678 55.5121 66.3064 55.9874 66.1838C56.5024 66.0612 56.8986 65.9183 57.1759 65.7548L57.5918 73.1709C56.0469 73.7021 54.4426 73.9677 52.7788 73.9677C49.174 73.9677 46.3614 72.987 44.3411 71.0257C42.3209 69.0236 41.3108 66.2043 41.3108 62.5677V28H50.5802V62.0161Z" fill="url(#paint1_linear_4596_77528)"/>
<path fill-rule="evenodd" clip-rule="evenodd" d="M17.5883 33.7277C20.9554 33.7277 23.966 34.4633 26.6201 35.9342C29.2741 37.3643 31.3539 39.3664 32.8592 41.9406C34.3645 44.5148 35.1173 47.4364 35.1173 50.7052C35.1172 53.974 34.3645 56.8955 32.8592 59.4697C31.3539 62.0438 29.2741 64.0664 26.6201 65.5374C23.966 66.9675 20.9554 67.6825 17.5883 67.6825C14.2212 67.6825 11.1907 66.9675 8.49701 65.5374C5.84294 64.0664 3.7632 62.0439 2.25791 59.4697C0.752613 56.8955 1.23678e-05 53.974 0 50.7052C0 47.4364 0.752601 44.5148 2.25791 41.9406C3.7632 39.3664 5.84295 37.3643 8.49701 35.9342C11.1907 34.4633 14.2212 33.7277 17.5883 33.7277ZM17.5883 41.5729C15.2115 41.573 13.2507 42.4105 11.7058 44.0857C10.1608 45.7201 9.38839 47.9267 9.38839 50.7052C9.3884 53.4837 10.1608 55.7106 11.7058 57.3859C13.2507 59.0202 15.2115 59.8373 17.5883 59.8373C19.9651 59.8373 21.9062 59.0202 23.4115 57.3859C24.9564 55.7106 25.7289 53.4837 25.7289 50.7052C25.7289 47.9267 24.9564 45.7201 23.4115 44.0857C21.9062 42.4105 19.9651 41.5729 17.5883 41.5729Z" fill="url(#paint2_linear_4596_77528)"/>
<path fill-rule="evenodd" clip-rule="evenodd" d="M75.173 33.7277C79.2532 33.7277 82.4421 35.0557 84.7396 37.7116V34.218H94.0091V67.1922H85.1555V63.3922C82.8579 66.2524 79.5305 67.6825 75.173 67.6825C72.1624 67.6825 69.429 66.9879 66.973 65.5987C64.5566 64.2094 62.6551 62.2277 61.2687 59.6535C59.8822 57.0793 59.1892 54.0966 59.1891 50.7052C59.1891 47.3138 59.8822 44.3309 61.2687 41.7568C62.6551 39.1826 64.5566 37.2008 66.973 35.8116C69.429 34.4223 72.1624 33.7277 75.173 33.7277ZM76.7774 41.5729C74.4006 41.5729 72.4396 42.4105 70.8947 44.0857C69.3498 45.7201 68.5773 47.9267 68.5773 50.7052C68.5774 53.4837 69.3498 55.7106 70.8947 57.3859C72.4396 59.0203 74.4006 59.8373 76.7774 59.8373C79.1145 59.8373 81.0556 59.0202 82.6005 57.3859C84.1454 55.7106 84.9178 53.4837 84.9178 50.7052C84.9178 47.9267 84.1454 45.7201 82.6005 44.0857C81.0556 42.4105 79.1145 41.573 76.7774 41.5729Z" fill="url(#paint3_linear_4596_77528)"/>
<path fill-rule="evenodd" clip-rule="evenodd" d="M179.999 33.7216C183.049 33.7216 185.822 34.3957 188.318 35.7441C190.813 37.0516 192.794 38.9721 194.26 41.5055C195.765 43.9979 196.517 46.9603 196.517 50.3926L172.868 55.1119C173.542 56.7462 174.592 57.972 176.018 58.7892C177.483 59.6064 179.266 60.0152 181.365 60.0152C183.029 60.0152 184.495 59.7699 185.763 59.2795C187.07 58.7484 188.278 57.9313 189.387 56.8281L194.319 62.3441C191.308 65.899 186.911 67.6764 181.128 67.6764C177.523 67.6764 174.334 66.9613 171.561 65.5312C168.788 64.0602 166.649 62.0377 165.144 59.4635C163.638 56.8894 162.886 53.9678 162.886 50.6991C162.886 47.4711 163.619 44.5699 165.084 41.9958C166.59 39.3807 168.63 37.3582 171.205 35.9281C173.819 34.4571 176.751 33.7216 179.999 33.7216ZM179.999 40.9538C177.662 40.9538 175.76 41.7301 174.294 43.2828C172.829 44.8355 172.056 46.9807 171.977 49.7183L187.545 46.5926C187.109 44.8764 186.218 43.5075 184.871 42.486C183.524 41.4646 181.9 40.9538 179.999 40.9538Z" fill="url(#paint4_linear_4596_77528)"/>
<path fill-rule="evenodd" clip-rule="evenodd" d="M217.481 33.7216C220.532 33.7216 223.304 34.3957 225.8 35.7441C228.296 37.0516 230.276 38.9721 231.742 41.5055C233.247 43.9979 234 46.9603 234 50.3926L210.351 55.1119C211.024 56.7462 212.074 57.972 213.5 58.7892C214.966 59.6064 216.749 60.0152 218.848 60.0152C220.512 60.0152 221.977 59.7699 223.245 59.2795C224.552 58.7484 225.761 57.9313 226.87 56.8281L231.802 62.3441C228.791 65.899 224.394 67.6764 218.61 67.6764C215.006 67.6764 211.817 66.9613 209.044 65.5312C206.271 64.0602 204.132 62.0377 202.626 59.4635C201.121 56.8894 200.368 53.9678 200.368 50.6991C200.368 47.4711 201.101 44.5699 202.567 41.9958C204.072 39.3807 206.112 37.3582 208.687 35.9281C211.302 34.4571 214.233 33.7216 217.481 33.7216ZM217.481 40.9538C215.144 40.9538 213.243 41.7301 211.777 43.2828C210.311 44.8355 209.539 46.9807 209.46 49.7183L225.028 46.5926C224.592 44.8764 223.701 43.5075 222.354 42.486C221.007 41.4646 219.383 40.9538 217.481 40.9538Z" fill="url(#paint5_linear_4596_77528)"/>
<path d="M143.53 33.7216C147.531 33.7216 150.701 34.9473 153.038 37.399C155.415 39.8097 156.603 43.4463 156.603 48.3086V67.1861H147.333V49.7796C147.333 47.1646 146.799 45.2238 145.729 43.9571C144.699 42.6496 143.214 41.9958 141.273 41.9958C139.094 41.9958 137.371 42.7313 136.103 44.2022C134.835 45.6324 134.202 47.7775 134.202 50.6377V67.1861H124.932V49.7796C124.932 44.5904 122.912 41.9958 118.871 41.9958C116.732 41.9958 115.029 42.7313 113.761 44.2022C112.493 45.6324 111.86 47.7775 111.86 50.6377V67.1861H102.59V34.2119H111.444V38.0119C112.632 36.6227 114.078 35.5603 115.781 34.8248C117.524 34.0893 119.426 33.7216 121.486 33.7216C123.744 33.7216 125.784 34.1915 127.606 35.1313C129.428 36.0302 130.894 37.3582 132.003 39.1152C133.31 37.399 134.954 36.0711 136.935 35.1313C138.955 34.1915 141.154 33.7216 143.53 33.7216Z" fill="url(#paint6_linear_4596_77528)"/>
<defs>
<linearGradient id="paint0_linear_4596_77528" x1="-7.43046" y1="103.166" x2="218.293" y2="-24.2354" gradientUnits="userSpaceOnUse">
<stop offset="0.158654" stop-color="#7A5FFF" style="stop-color:#7A5FFF;stop-color:color(display-p3 0.4784 0.3725 1.0000);stop-opacity:1;"/>
<stop offset="0.774038" stop-color="#5ED4B2" style="stop-color:#5ED4B2;stop-color:color(display-p3 0.3686 0.8314 0.6980);stop-opacity:1;"/>
</linearGradient>
<linearGradient id="paint1_linear_4596_77528" x1="-7.43046" y1="103.166" x2="218.293" y2="-24.2354" gradientUnits="userSpaceOnUse">
<stop offset="0.158654" stop-color="#7A5FFF" style="stop-color:#7A5FFF;stop-color:color(display-p3 0.4784 0.3725 1.0000);stop-opacity:1;"/>
<stop offset="0.774038" stop-color="#5ED4B2" style="stop-color:#5ED4B2;stop-color:color(display-p3 0.3686 0.8314 0.6980);stop-opacity:1;"/>
</linearGradient>
<linearGradient id="paint2_linear_4596_77528" x1="-7.43046" y1="103.166" x2="218.293" y2="-24.2354" gradientUnits="userSpaceOnUse">
<stop offset="0.158654" stop-color="#7A5FFF" style="stop-color:#7A5FFF;stop-color:color(display-p3 0.4784 0.3725 1.0000);stop-opacity:1;"/>
<stop offset="0.774038" stop-color="#5ED4B2" style="stop-color:#5ED4B2;stop-color:color(display-p3 0.3686 0.8314 0.6980);stop-opacity:1;"/>
</linearGradient>
<linearGradient id="paint3_linear_4596_77528" x1="-7.43046" y1="103.166" x2="218.293" y2="-24.2354" gradientUnits="userSpaceOnUse">
<stop offset="0.158654" stop-color="#7A5FFF" style="stop-color:#7A5FFF;stop-color:color(display-p3 0.4784 0.3725 1.0000);stop-opacity:1;"/>
<stop offset="0.774038" stop-color="#5ED4B2" style="stop-color:#5ED4B2;stop-color:color(display-p3 0.3686 0.8314 0.6980);stop-opacity:1;"/>
</linearGradient>
<linearGradient id="paint4_linear_4596_77528" x1="-7.43046" y1="103.166" x2="218.293" y2="-24.2354" gradientUnits="userSpaceOnUse">
<stop offset="0.158654" stop-color="#7A5FFF" style="stop-color:#7A5FFF;stop-color:color(display-p3 0.4784 0.3725 1.0000);stop-opacity:1;"/>
<stop offset="0.774038" stop-color="#5ED4B2" style="stop-color:#5ED4B2;stop-color:color(display-p3 0.3686 0.8314 0.6980);stop-opacity:1;"/>
</linearGradient>
<linearGradient id="paint5_linear_4596_77528" x1="-7.43046" y1="103.166" x2="218.293" y2="-24.2354" gradientUnits="userSpaceOnUse">
<stop offset="0.158654" stop-color="#7A5FFF" style="stop-color:#7A5FFF;stop-color:color(display-p3 0.4784 0.3725 1.0000);stop-opacity:1;"/>
<stop offset="0.774038" stop-color="#5ED4B2" style="stop-color:#5ED4B2;stop-color:color(display-p3 0.3686 0.8314 0.6980);stop-opacity:1;"/>
</linearGradient>
<linearGradient id="paint6_linear_4596_77528" x1="-7.43046" y1="103.166" x2="218.293" y2="-24.2354" gradientUnits="userSpaceOnUse">
<stop offset="0.158654" stop-color="#7A5FFF" style="stop-color:#7A5FFF;stop-color:color(display-p3 0.4784 0.3725 1.0000);stop-opacity:1;"/>
<stop offset="0.774038" stop-color="#5ED4B2" style="stop-color:#5ED4B2;stop-color:color(display-p3 0.3686 0.8314 0.6980);stop-opacity:1;"/>
</linearGradient>
</defs>
</svg>
