<svg width="20" height="20" viewBox="0 0 20 20" fill="none" xmlns="http://www.w3.org/2000/svg">
<g clip-path="url(#clip0_6504_24749)">
<path d="M9.73339 1.07708C9.92294 0.957351 10.1751 0.977026 10.3437 1.13665L19.8437 10.1367C20.0441 10.3265 20.053 10.6432 19.8633 10.8437C19.6734 11.0441 19.3567 11.0529 19.1562 10.8632L18 9.76751V14.3036C18 15.028 17.9587 16.7934 17.8398 17.1806C17.6183 17.8991 17.107 18.4267 16.3525 18.7167C16.2337 18.7624 16.0836 18.8138 16.0205 18.831C15.7361 18.9052 15.36 18.9634 15.0019 18.9863C14.8666 18.995 14.4865 18.9997 14.1103 18.9999H5.76269C5.44454 18.9993 5.14881 18.9957 5.03222 18.9882C4.4454 18.9511 4.05614 18.8738 3.64746 18.7167L3.44824 18.6318C3.25836 18.5434 3.09462 18.4415 2.92578 18.3076C2.55665 18.0147 2.30243 17.6406 2.16015 17.1806L2.11914 16.9755C2.03158 16.3684 2 14.9375 2 14.3036V9.76751L0.843745 10.8632C0.643276 11.0529 0.326563 11.0441 0.136714 10.8437C-0.0529897 10.6432 -0.0441475 10.3265 0.156245 10.1367L9.65625 1.13665L9.73339 1.07708ZM3 8.82025V14.3036C3 14.6523 3.00963 15.2604 3.03417 15.8251C3.04647 16.1079 3.06235 16.371 3.08105 16.581L3.11621 16.8867C3.20047 17.1581 3.34012 17.3603 3.54687 17.5243C3.68712 17.6356 3.81418 17.7083 4.00781 17.7831C4.29683 17.8941 4.58135 17.9576 5.09667 17.9902C5.17649 17.9952 5.43713 17.9992 5.76269 17.9999H7.00195C7.0016 17.9395 7.00003 17.8753 7 17.8115V13.1161C7.0003 12.9374 7.00243 12.7717 7.00585 12.706C7.023 12.3758 7.05834 12.1566 7.13085 11.9267L7.21289 11.7118C7.24346 11.6459 7.27814 11.5837 7.31933 11.5204L7.42773 11.3769C7.5433 11.2453 7.68059 11.1498 7.83984 11.0898L7.93457 11.0673C8.1347 11.0322 8.52842 11.0129 8.84375 11.0048L9.16699 10.9999H10.832L11.1553 11.0048C11.4705 11.0129 11.8642 11.0322 12.0644 11.0673L12.1592 11.0898C12.4495 11.1988 12.6727 11.4331 12.8135 11.7743L12.8682 11.9267C12.9226 12.0992 12.9559 12.2657 12.9766 12.4775L12.9932 12.706C12.9969 12.7805 12.9995 12.943 13 13.1161V17.8115L12.9971 17.9999H14.1094L14.6318 17.996L14.9375 17.9882C15.2375 17.9691 15.5454 17.92 15.7588 17.8652C15.7618 17.8643 15.7676 17.8631 15.7764 17.8603C15.793 17.8549 15.8149 17.8474 15.8398 17.8388C15.8903 17.8214 15.9461 17.8012 15.9932 17.7831C16.4869 17.5934 16.7605 17.2857 16.8838 16.8857C16.8866 16.8659 16.9016 16.7751 16.9189 16.581C16.9376 16.371 16.9535 16.1079 16.9658 15.8251C16.9904 15.2604 17 14.6523 17 14.3036V8.82025L10 2.18841L3 8.82025ZM9.16699 11.9999C9.01622 11.9999 8.74684 12.0053 8.49804 12.0185C8.37312 12.0251 8.2645 12.0331 8.18359 12.0419C8.18129 12.0422 8.17895 12.0427 8.17675 12.0429C8.17199 12.0487 8.16417 12.0557 8.15722 12.0663C8.1298 12.1085 8.11014 12.1469 8.08398 12.2294C8.0443 12.3557 8.01799 12.4863 8.0039 12.7577V12.7695C8.00366 12.7764 8.00319 12.7858 8.00292 12.7968C8.00238 12.8195 8.00238 12.8483 8.00195 12.8818C8.00108 12.9485 8.00015 13.0301 8 13.1161V17.8115C8.00003 17.8759 8.00046 17.9401 8.00097 17.9999H11.998C11.9985 17.9425 12 17.8786 12 17.8115V13.1191C11.9995 12.943 11.9974 12.8053 11.9951 12.7577C11.9809 12.4849 11.955 12.3542 11.915 12.2275C11.8812 12.1203 11.8447 12.0663 11.8262 12.0439C11.8228 12.0435 11.8191 12.0423 11.8154 12.0419C11.7345 12.0332 11.6258 12.0251 11.501 12.0185C11.2521 12.0053 10.9828 11.9999 10.832 11.9999H9.16699Z" fill="#30343F" style="fill:#30343F;fill:color(display-p3 0.1882 0.2039 0.2471);fill-opacity:1;"/>
</g>
<defs>
<clipPath id="clip0_6504_24749">
<rect width="20" height="20" fill="white" style="fill:white;fill-opacity:1;"/>
</clipPath>
</defs>
</svg>
